<svg width="256" height="256" viewBox="0 0 256 256" fill="none" xmlns="http://www.w3.org/2000/svg">
<path d="M128 0C198.692 0 256 57.3076 256 128C256 198.692 198.692 256 128 256H112V224C112 206.603 98.1176 192.449 80.8262 192.011L80 192H76.001C69.3733 192 64 197.373 64 204.001V244.044C63.9756 250.651 58.6124 255.999 52 255.999H64V256H32V255.998H18V253.551C26.0145 251.731 31.9971 244.565 31.998 236H32V76C32.0002 69.3726 37.3736 64.0003 44.001 64H77.9971V66.4473C70.0076 68.2611 64.0381 75.3885 64 83.918V96C64 131.346 99.8172 160 144 160C188.183 160 224 131.346 224 96C224 74.6091 210.882 55.6699 190.73 44.0488C172.418 56.4819 160.306 77.3645 160.006 101.096L160 102V101C160 109.837 152.837 117 144 117C135.302 117 128.224 110.059 128.005 101.413L128 101V95H127.991C127.461 60.3902 99.459 32.4438 64.8271 32.0049L64 32H19.999C11.4336 32.0002 4.26591 37.9832 2.44629 45.998H0.000976562V32H0V11.8184H0.00195312C0.0989299 5.33578 5.33669 0.0996354 11.8193 0.00292969V0H128Z" fill="#50826E"/>
<ellipse cx="192" cy="94" rx="14" ry="14" transform="rotate(90 192 94)" fill="#50826E"/>
<ellipse cx="96" cy="94" rx="14" ry="14" transform="rotate(90 96 94)" fill="#50826E"/>
</svg>
