<svg width="256" height="256" viewBox="0 0 256 256" fill="none" xmlns="http://www.w3.org/2000/svg">
    <path d="M128 0C198.692 0 256 57.3076 256 128C256 198.692 198.692 256 128 256H112V224C112 206.603 98.1176 192.449 80.8262 192.011L80 192H76.001C69.4768 192 64.1681 197.207 64.0039 203.691L64 204.001V244.044C63.9756 250.651 58.6124 255.999 52 255.999H64V256H32V255.998H18V253.551C26.0145 251.731 31.9971 244.565 31.998 236H32V76C32.0002 69.3726 37.3736 64.0003 44.001 64H77.9971V66.4473C70.0076 68.2611 64.0381 75.3885 64 83.918V96H64.0029C64.2565 131.381 99.9744 160 144 160C188.183 160 224 131.177 224 95.6211C224 74.298 211.118 55.3966 191.275 43.6807C172.658 56.0673 160.309 77.1295 160.006 101.096L160 102V101C160 109.837 152.837 117 144 117C135.302 117 128.224 110.059 128.005 101.413L128 101V95H127.991C127.461 60.3902 99.459 32.4438 64.8271 32.0049L64 32H19.999L19.5986 32.0039C11.211 32.1872 4.23749 38.1084 2.44629 45.998H0.000976562V32H0V9.72363C0.871806 4.77339 4.77827 0.86943 9.72949 0H128Z" fill="#50826E"/>
    <ellipse cx="192" cy="94" rx="14" ry="14" transform="rotate(90 192 94)" fill="#50826E"/>
    <ellipse cx="96" cy="94" rx="14" ry="14" transform="rotate(90 96 94)" fill="#50826E"/>
</svg>
